# xmcd CD database file
#
# Track frame offsets:
#	150
#	11575
#	27294
#	37910
#	47895
#	59900
#	67973
#	79986
#	90171
#	99460
#	110854
#	123014
#	139290
#	144828
#	154582
#	169364
#	186459
#	198639
#	208917
#
# Disc length: 2962 seconds
#
# Revision: 0
# Processed by: cddbd v1.5.2PL0 Copyright (c) Steve Scherf et al.
# Submitted via: CDex 1.70beta2
#
DISCID=130b9013
DTITLE=Megha Morganfield - Pure Harp
DYEAR=2003
DGENRE=New Age
TTITLE0=Dreaming You
TTITLE1=Majestic Moment
TTITLE2=Preciousness
TTITLE3=Saraswati Raga
TTITLE4=Time Release
TTITLE5=Let's Bake a Cake
TTITLE6=Glisten Road
TTITLE7=Two Friends
TTITLE8=Sometimes the Water Runs
TTITLE9=Beseechment
TTITLE10=Journal Entry
TTITLE11=Wings and Rings
TTITLE12=Tea Party
TTITLE13=I'm in Love with You
TTITLE14=Round the Corner
TTITLE15=Garden Light
TTITLE16=Houses and Parallels
TTITLE17=Stonger Than You Know
TTITLE18=Desert Beauty
EXTD=YEAR: 2003
EXTT0=
EXTT1=
EXTT2=
EXTT3=
EXTT4=
EXTT5=
EXTT6=
EXTT7=
EXTT8=
EXTT9=
EXTT10=
EXTT11=
EXTT12=
EXTT13=
EXTT14=
EXTT15=
EXTT16=
EXTT17=
EXTT18=
PLAYORDER=
